<svg width="231" height="198" viewBox="0 0 231 198" fill="none" xmlns="http://www.w3.org/2000/svg">
<path fill-rule="evenodd" clip-rule="evenodd" d="M113 3.3724C104.122 6.3484 100.386 7.0264 88.809 7.7614C76.867 8.5204 73.802 9.0994 64.809 12.3004C41.526 20.5864 43.604 20.1394 28 20.2154C20.025 20.2534 10.463 19.9124 6.75 19.4554L0 18.6264V23.5874V28.5484L8.75 29.2244C13.562 29.5954 18.949 30.1464 20.721 30.4484C23.908 30.9914 23.926 31.0274 22.471 33.8414C20.31 38.0204 20.652 40.8444 23.947 46.0404C29.501 54.7994 38.635 58.7854 53.15 58.7854C61.116 58.7854 63.035 58.3784 72.741 54.6294C82.847 50.7254 84.138 50.4694 94 50.4214C111.608 50.3344 113.823 51.3794 130.498 67.6354C138.199 75.1434 148.317 85.5244 152.982 90.7044C157.646 95.8854 169.957 107.794 180.338 117.168C190.719 126.543 199.614 135.271 200.106 136.564C202.597 143.116 198.281 149.785 191.548 149.785C184.503 149.785 167.807 139.589 158.214 129.428C153.436 124.367 148.035 115.179 148.01 112.07C147.993 109.993 144.262 108.574 142 109.785C139.109 111.332 139.405 117.195 142.709 123.839C146.203 130.862 157.077 141.672 168.25 149.228C173.063 152.483 177 155.684 177 156.342C177 157.547 169.846 161.035 164.763 162.309C160.2 163.453 152.685 159.92 140.778 151.032C132.47 144.831 128.948 142.767 127.051 142.988C123.853 143.36 123.071 147.101 125.606 149.902C126.577 150.975 132.238 155.485 138.186 159.924C144.134 164.362 149 168.613 149 169.37C149 171.284 144.757 172.153 138.837 171.452C135.592 171.068 130.802 169.202 125.171 166.128C111.944 158.908 111.719 158.818 103.05 157.294C95.978 156.05 94.189 155.281 89.124 151.301C82.436 146.047 78.45 144.626 72.63 145.419C69.065 145.906 67.816 145.512 63.5 142.542C56.251 137.554 52.506 136.624 40.793 136.906C28.785 137.194 29.432 137.452 13.047 125.876C6.747 121.426 1.235 117.785 0.797 117.785C0.358 117.785 0 121.563 0 126.18C0 140.224 5.483 153.398 12.931 157.249C14.564 158.094 17.971 158.785 20.501 158.785C24.876 158.785 25.178 158.969 26.647 162.535C29.932 170.51 35.453 174.058 44.788 174.194C51.056 174.285 51.083 174.298 53.292 178.285C55.735 182.694 62.442 186.785 67.229 186.785C69.234 186.785 71.24 188.037 74.267 191.181C82.245 199.465 94.937 200.001 102.206 192.361C105.137 189.281 105.614 189.116 108.925 190.03C114.564 191.587 122.493 190.248 130.692 186.354C134.808 184.4 140.893 182.363 144.214 181.828C148.687 181.108 151.435 179.935 154.809 177.306C157.315 175.353 161.196 173.281 163.433 172.7C165.67 172.12 172.9 168.993 179.5 165.752C186.1 162.512 193.075 159.564 195 159.202C199.94 158.273 203.354 156.341 206.355 152.775C209.128 149.479 211.3 143.024 210.803 139.553C210.561 137.859 211.204 137.263 214 136.592C215.925 136.13 220.537 134.322 224.25 132.575L231 129.399V124.092C231 121.173 230.736 118.785 230.412 118.785C230.089 118.785 226.966 120.384 223.472 122.338C215.106 127.016 211.491 127.994 207.016 126.789C202.616 125.604 181.073 107.025 166 91.4154C136.315 60.6724 121.684 46.7784 116.12 44.0454C110.758 41.4124 109.835 41.2864 96 41.3134C81.537 41.3414 81.476 41.3514 72 45.1734C55.785 51.7134 41.161 51.1824 33.762 43.7824C31.693 41.7134 30 39.6064 30 39.0994C30 38.5934 33.263 37.1294 37.25 35.8464C41.237 34.5644 50.569 30.3544 57.988 26.4924L71.475 19.4694L88.488 17.6334C100.843 16.2994 108.031 14.9734 114.747 12.7914C129.838 7.8854 131.242 8.1514 159.5 21.2654C188.094 34.5344 193.467 36.1584 209 36.2294C220.15 36.2794 222.013 36.0324 226.25 33.9464L231 31.6074V25.1114V18.6154L226.206 22.1334C213.332 31.5844 200.336 29.5614 162.316 12.1884C131.543 -1.8736 129.655 -2.2116 113 3.3724ZM19.188 140.998L25.193 145.21L22.986 146.998C20.009 149.408 17.782 149.247 15.135 146.428C13.012 144.169 10.964 136.785 12.46 136.785C12.857 136.785 15.885 138.681 19.188 140.998ZM52.186 146.82C56.131 147.916 61 152.814 61 155.687C61 159.628 51.651 164.785 44.509 164.785C37.689 164.785 32.212 156.272 35.132 150.21C37.119 146.085 44.357 144.646 52.186 146.82ZM82.093 157.333C86.348 159.534 87.643 163.441 85.207 166.73C80.042 173.702 70.657 178.101 65.098 176.155C61.184 174.784 61.246 171.414 65.276 166.481C67.162 164.173 69.458 160.822 70.378 159.035C71.786 156.3 72.609 155.785 75.575 155.785C77.514 155.785 80.446 156.482 82.093 157.333ZM102 173.373C102 176.952 99.655 181.919 96.663 184.677C94.494 186.677 93.079 187.055 88.03 186.984C78.115 186.843 77.45 184.968 85.25 179.15C88.138 176.997 92.075 173.093 94 170.476L97.5 165.717L99.75 168.307C100.987 169.731 102 172.011 102 173.373ZM119.52 173.941L126.264 177.097L122.882 178.899C121.022 179.89 118.026 180.72 116.225 180.743C113.611 180.777 112.754 180.268 111.975 178.22C110.757 175.017 110.708 170.785 111.888 170.785C112.376 170.785 115.81 172.205 119.52 173.941Z" fill="white"/>
</svg>
